<?xml version="1.0" encoding="UTF-8"?>
<svg width="276px" height="199px" viewBox="0 0 276 199" version="1.1" xmlns="http://www.w3.org/2000/svg" xmlns:xlink="http://www.w3.org/1999/xlink">
    <!-- Generator: Sketch 52.6 (67491) - http://www.bohemiancoding.com/sketch -->
    <title>Docker_logo</title>
    <desc>Created with Sketch.</desc>
    <g id="Page-1" stroke="none" stroke-width="1" fill="none" fill-rule="evenodd">
        <g id="Docker_logo" fill="#2496ED" fill-rule="nonzero">
            <path d="M269.662651,75.8313253 C263.46988,71.5180723 249.253012,69.9277108 238.144578,72.0722892 C236.843373,61.3253012 230.915663,51.9036145 220.578313,43.5662651 L214.626506,39.253012 L210.481928,45.4457831 C205.097965,54.5227277 202.664696,65.0472479 203.518072,75.5662651 C203.963213,81.3958026 205.824281,87.0286359 208.939759,91.9759036 C202.486421,95.3220268 195.291006,96.9799564 188.024096,96.7951807 L1.25301205,96.7951807 L0.746987952,98.939759 C-1.06024096,109.686747 -1.06024096,143.301205 20.0240964,169.108434 C36.0481928,188.746988 59.8072289,198.674699 91.060241,198.674699 C158.746988,198.674699 208.86747,166.144578 232.361446,107.253012 C241.662651,107.518072 261.542169,107.253012 271.638554,87.0843373 C271.903614,86.5542169 272.409639,85.4698795 274.216867,81.4457831 L275.253012,79.3012048 L269.566265,75.8072289 L269.662651,75.8313253 Z M150.554217,0 L122.144578,0 L122.144578,26.8915663 L150.554217,26.8915663 L150.554217,0 Z M150.554217,32.2650602 L122.144578,32.2650602 L122.144578,59.1566265 L150.554217,59.1566265 L150.554217,32.2650602 Z M116.963855,32.2650602 L88.5542169,32.2650602 L88.5542169,59.1566265 L116.963855,59.1566265 L116.963855,32.2650602 Z M83.373494,32.2650602 L54.9879518,32.2650602 L54.9879518,59.1566265 L83.3975904,59.1566265 L83.3975904,32.2650602 L83.373494,32.2650602 Z M49.7831325,64.5301205 L21.3975904,64.5301205 L21.3975904,91.4216867 L49.8072289,91.4216867 L49.8072289,64.5301205 L49.7831325,64.5301205 Z M83.373494,64.5301205 L54.9879518,64.5301205 L54.9879518,91.4216867 L83.3975904,91.4216867 L83.3975904,64.5301205 L83.373494,64.5301205 Z M116.963855,64.5301205 L88.5542169,64.5301205 L88.5542169,91.4216867 L116.963855,91.4216867 L116.963855,64.5301205 Z M150.554217,64.5301205 L122.144578,64.5301205 L122.144578,91.4216867 L150.554217,91.4216867 L150.554217,64.5301205 Z M184.144578,64.5301205 L155.73494,64.5301205 L155.73494,91.4216867 L184.144578,91.4216867 L184.144578,64.5301205 Z" id="Shape"></path>
        </g>
    </g>
</svg>