<?xml version="1.0" encoding="UTF-8"?>
<svg width="530px" height="290px" viewBox="0 0 530 290" version="1.1" xmlns="http://www.w3.org/2000/svg" xmlns:xlink="http://www.w3.org/1999/xlink">
    <!-- Generator: Sketch 52.6 (67491) - http://www.bohemiancoding.com/sketch -->
    <title>Slice</title>
    <desc>Created with Sketch.</desc>
    <g id="Page-1" stroke="none" stroke-width="1" fill="none" fill-rule="evenodd">
        <rect id="Rectangle" fill="#FFFFFF" fill-rule="nonzero" x="0" y="0" width="530" height="290" rx="8"></rect>
        <g id="django-logo-positive" transform="translate(46.000000, 69.000000)" fill="#092E20">
            <path d="M51.464,0 L75.336,0 L75.336,110.496 C63.09,112.821 54.099,113.751 44.334,113.751 C15.191,113.75 0,100.576 0,75.308 C0,50.971 16.122,35.161 41.078,35.161 C44.953,35.161 47.898,35.47 51.464,36.4 L51.464,0 Z M51.464,55.62 C48.674,54.691 46.349,54.381 43.404,54.381 C31.313,54.381 24.337,61.822 24.337,74.842 C24.337,87.554 31.003,94.529 43.249,94.529 C45.883,94.529 48.054,94.374 51.464,93.91 L51.464,55.62 Z" id="Shape" fill-rule="nonzero"></path>
            <path d="M113.312,36.865 L113.312,92.203 C113.312,111.27 111.917,120.415 107.732,128.321 C103.856,135.918 98.74,140.722 88.2,145.993 L66.033,135.452 C76.574,130.492 81.689,126.153 84.944,119.485 C88.355,112.665 89.441,104.759 89.441,83.988 L89.441,36.865 L113.312,36.865 Z M89.441,0.127 L113.312,0.127 L113.312,24.619 L89.441,24.619 L89.441,0.127 Z" id="Shape" fill-rule="nonzero"></path>
            <path d="M127.731,42.29 C138.273,37.331 148.348,35.161 159.354,35.161 C171.6,35.161 179.66,38.415 183.226,44.771 C185.24,48.336 185.86,52.986 185.86,62.908 L185.86,111.425 C175.163,112.975 161.678,114.061 151.758,114.061 C131.762,114.061 122.77,107.083 122.77,91.583 C122.77,74.841 134.706,67.091 164.004,64.61 L164.004,59.34 C164.004,55 161.834,53.451 155.788,53.451 C146.953,53.451 137.032,55.931 127.73,60.737 L127.73,42.29 L127.731,42.29 Z M165.089,80.268 C149.277,81.818 144.162,84.299 144.162,90.499 C144.162,95.149 147.108,97.319 153.618,97.319 C157.184,97.319 160.438,97.01 165.089,96.235 L165.089,80.268 Z" id="Shape" fill-rule="nonzero"></path>
            <path d="M197.487,40.585 C211.592,36.865 223.218,35.161 234.999,35.161 C247.245,35.161 256.081,37.95 261.353,43.376 C266.313,48.49 267.862,54.07 267.862,66.008 L267.862,112.82 L243.99,112.82 L243.99,66.938 C243.99,57.793 240.89,54.381 232.365,54.381 C229.11,54.381 226.165,54.691 221.358,56.086 L221.358,112.82 L197.487,112.82 L197.487,40.585 Z" id="Path"></path>
            <path d="M277.142,125.842 C285.514,130.182 293.884,132.196 302.719,132.196 C318.374,132.196 325.04,125.842 325.04,110.65 C325.04,110.495 325.04,110.34 325.04,110.185 C320.39,112.509 315.739,113.44 309.54,113.44 C288.613,113.44 275.28,99.644 275.28,77.788 C275.28,50.659 294.968,35.315 329.844,35.315 C340.076,35.315 349.532,36.399 361.003,38.724 L352.829,55.943 C346.473,54.703 352.32,55.777 347.517,55.312 L347.517,57.793 L347.826,67.867 L347.98,80.889 C348.135,84.143 348.135,87.399 348.291,90.654 C348.291,93.599 348.291,94.995 348.291,97.165 C348.291,117.627 346.586,127.237 341.471,135.142 C334.03,146.769 321.164,152.504 302.873,152.504 C293.572,152.504 285.513,151.109 277.141,147.853 L277.141,125.842 L277.142,125.842 Z M324.576,54.536 C324.266,54.536 323.957,54.536 323.802,54.536 L322.096,54.536 C317.447,54.381 312.022,55.62 308.3,57.945 C302.566,61.201 299.619,67.092 299.619,75.462 C299.619,87.399 305.511,94.219 316.051,94.219 C319.306,94.219 321.942,93.598 325.041,92.669 L325.041,90.963 L325.041,84.454 C325.041,81.664 324.887,78.562 324.887,75.308 L324.733,64.303 L324.577,56.397 L324.577,54.536 L324.576,54.536 Z" id="Shape" fill-rule="nonzero"></path>
            <path d="M398.062,34.85 C421.933,34.85 436.505,49.887 436.505,74.223 C436.505,99.181 421.315,114.837 397.132,114.837 C373.259,114.837 358.533,99.8 358.533,75.619 C358.534,50.505 373.726,34.85 398.062,34.85 Z M397.595,95.614 C406.742,95.614 412.168,88.018 412.168,74.842 C412.168,61.822 406.897,54.071 397.753,54.071 C388.296,54.071 382.869,61.668 382.869,74.842 C382.87,88.019 388.296,95.614 397.595,95.614 Z" id="Shape" fill-rule="nonzero"></path>
        </g>
    </g>
</svg>