<?xml version="1.0" encoding="UTF-8"?>
<svg width="222px" height="222px" viewBox="0 0 222 222" version="1.1" xmlns="http://www.w3.org/2000/svg" xmlns:xlink="http://www.w3.org/1999/xlink">
    <!-- Generator: Sketch 52.6 (67491) - http://www.bohemiancoding.com/sketch -->
    <title>Slice</title>
    <desc>Created with Sketch.</desc>
    <g id="Page-1" stroke="none" stroke-width="1" fill="none" fill-rule="evenodd">
        <rect id="Rectangle-Copy" fill="#FFFFFF" fill-rule="nonzero" x="-4" y="-6" width="232" height="232" rx="8"></rect>
        <g id="mongodb-alt" transform="translate(31.000000, 11.000000)">
            <g id="Group-2" transform="translate(0.000000, 164.000000)" fill-rule="nonzero">
                <path d="M147.787891,2.10115385 C147.615658,2.13653846 147.442677,2.52692308 147.442677,2.73961538 C147.40823,4.15961538 147.373784,7.92192308 147.373784,10.4773077 C147.373784,10.5484615 147.477123,10.6903846 147.580837,10.6903846 C148.099033,10.7257692 149.342851,10.7611538 150.414063,10.7611538 C151.899756,10.7611538 152.76354,10.5484615 153.247663,10.3357692 C154.491107,9.69653846 155.07857,8.31230769 155.07857,6.78576923 C155.07857,3.34346154 152.729093,2.03 149.239137,2.03 C148.997263,1.99461538 148.306835,1.99461538 147.787891,2.10115385 Z M156.702798,17.9665385 C156.702798,14.4526923 154.18034,12.5003846 149.619547,12.5003846 C149.412119,12.5003846 147.960872,12.465 147.615284,12.5357692 C147.51157,12.5715385 147.373784,12.6426923 147.373784,12.7492308 C147.373784,15.2688462 147.338963,19.28 147.442677,20.8415385 C147.51157,21.5157692 147.995693,22.4742308 148.583156,22.7580769 C149.204691,23.1130769 150.621491,23.1838462 151.588988,23.1838462 C154.3185,23.1838462 156.702798,21.6223077 156.702798,17.9665385 Z M140.739835,0.149230769 C141.085049,0.149230769 142.12144,0.255384615 144.782058,0.255384615 C147.304516,0.255384615 149.308405,0.184615385 151.761595,0.184615385 C154.767428,0.184615385 158.91374,1.28461538 158.91374,5.89884615 C158.91374,8.17038462 157.358779,9.98076923 155.320444,10.8680769 C155.217105,10.9034615 155.217105,10.9742308 155.320444,11.0096154 C158.222563,11.7553846 160.779842,13.6007692 160.779842,17.0788462 C160.779842,20.4865385 158.706686,22.6515385 155.700479,24.0003846 C153.869198,24.8165385 151.588988,25.1003846 149.273958,25.1003846 C147.51157,25.1003846 142.77817,24.8876923 140.152372,24.9588462 C139.876051,24.8519231 140.394247,23.5742308 140.635747,23.3615385 C141.25803,23.3257692 141.741405,23.2903846 142.398135,23.0773077 C143.331186,22.8292308 143.434526,22.545 143.572686,21.09 C143.641953,19.8476923 143.641953,15.4461538 143.641953,12.3230769 C143.641953,8.02846154 143.676774,5.11807692 143.641953,3.69846154 C143.607507,2.59846154 143.227472,2.24307692 142.467402,2.03 C141.879565,1.92384615 140.912442,1.78153846 140.117551,1.67538462 C139.94457,1.49769231 140.532033,0.290769231 140.739835,0.149230769 Z M120.802793,22.2257692 C121.632505,22.8996154 123.256358,23.1834615 124.707605,23.1834615 C126.573333,23.1834615 128.43906,22.8292308 130.235895,21.1603846 C132.067177,19.4573077 133.345442,16.8307692 133.345442,12.6426923 C133.345442,8.63153846 131.859749,5.36615385 128.819095,3.45 C127.091528,2.34923077 124.880212,1.88846154 122.323307,1.88846154 C121.563237,1.88846154 120.837614,1.92384615 120.388686,2.13653846 C120.284598,2.20769231 120.043098,2.52692308 120.043098,2.70423077 C119.97383,3.41423077 119.97383,8.88 119.97383,12.0746154 C119.97383,15.3753846 119.97383,19.9896154 120.043098,20.5219231 C120.043098,21.0546154 120.284598,21.8707692 120.803167,22.2257692 L120.802793,22.2257692 Z M112.959472,0.148846154 C113.616202,0.148846154 116.138286,0.255384615 117.347658,0.255384615 C119.524902,0.255384615 121.079488,0.149230769 125.190979,0.149230769 C128.646114,0.149230769 131.548607,1.10730769 133.621763,2.91730769 C136.143847,5.15346154 137.457307,8.24153846 137.457307,12.0034615 C137.457307,17.3630769 135.073009,20.4511538 132.688712,22.2257692 C130.305163,24.0357692 127.195242,25.1003846 122.772609,25.1003846 C120.423133,25.1003846 116.380535,25.0296154 113.02874,24.9938462 L112.994293,24.9938462 C112.821686,24.6746154 113.270614,23.4323077 113.546935,23.3969231 C114.44554,23.2903846 114.687414,23.2546154 115.136716,23.0776923 C115.861965,22.7934615 116.0005,22.4030769 116.104214,21.09 C116.207553,18.6407692 116.173107,15.695 116.173107,12.3584615 C116.173107,9.98076923 116.207553,5.33076923 116.138286,3.84 C116.034947,2.59807692 115.516751,2.27846154 114.479986,2.06538462 C113.961791,1.95923077 113.270614,1.81692308 112.303491,1.71076923 C112.164956,1.46192308 112.786865,0.361923077 112.959472,0.149230769 L112.959472,0.148846154 Z" id="Shape" fill="#8E714E"></path>
                <path d="M71.1518907,23.6096154 C70.288107,23.5030769 69.6661977,23.3615385 68.9061279,23.0065385 C68.802414,22.9353846 68.6294326,22.5807692 68.6294326,22.4384615 C68.5605395,21.1961538 68.5605395,17.6469231 68.5605395,15.2692308 C68.5605395,13.3523077 68.2497721,11.6842308 67.4548814,10.5130769 C66.5218302,9.16384615 65.1746721,8.38346154 63.4467302,8.38346154 C61.9265907,8.38346154 59.8878814,9.44807692 58.1947605,10.9388462 C58.160314,10.9742308 57.883993,11.2230769 57.9184395,10.8323077 C57.9184395,10.4419231 57.987707,9.66115385 58.0221535,9.12846154 C58.0569744,8.63153846 57.7802791,8.38346154 57.7802791,8.38346154 C56.6746209,8.95115385 53.5650744,9.69653846 52.4245953,9.80269231 C51.5956326,9.98076923 51.3882047,10.7969231 52.2523628,11.0807692 L52.2868093,11.0807692 C53.2191116,11.3646154 53.8413953,11.6842308 54.3247698,12.0038462 C54.6703581,12.2876923 54.6359116,12.6780769 54.6359116,12.9976923 C54.6703581,15.6592308 54.6703581,19.7411538 54.5670186,21.9773077 C54.5325721,22.8646154 54.2906977,23.1838462 53.668414,23.3257692 L53.7376814,23.2903846 C53.2539326,23.3969231 52.8738977,23.5030769 52.2864349,23.5742308 C52.079007,23.7873077 52.079007,24.9230769 52.2864349,25.1715385 C52.6664698,25.1715385 54.6703581,25.065 56.329407,25.065 C58.6096163,25.065 59.7845419,25.1715385 60.3716302,25.1715385 C60.6135047,24.8876923 60.6827721,23.8226923 60.5446116,23.5742308 C59.8878814,23.5388462 59.4041326,23.4680769 58.9552047,23.3257692 C58.3332953,23.1834615 58.160314,22.8646154 58.125493,22.1192308 C58.0569744,20.2376923 58.0569744,16.2626923 58.0569744,13.5653846 C58.0569744,12.82 58.2640279,12.465 58.4710814,12.2519231 C59.2659721,11.5423077 60.5446116,11.0453846 61.6847163,11.0453846 C62.7903744,11.0453846 63.5156233,11.4003846 64.0686395,11.8619231 C64.8287093,12.5003846 65.0705837,13.4234615 65.1742977,14.0976923 C65.3469047,15.6238462 65.2780116,18.6407692 65.2780116,21.2673077 C65.2780116,22.6869231 65.1742977,23.0419231 64.6564767,23.2192308 C64.4142279,23.3257692 63.7923186,23.4680769 63.0666953,23.5384615 C62.8248209,23.7873077 62.8940884,24.8876923 63.0666953,25.1361538 C64.0686395,25.1361538 65.2435651,25.0296154 66.9711326,25.0296154 C69.1131814,25.0296154 70.4955349,25.1361538 71.0485512,25.1361538 C71.2207837,24.9230769 71.2900512,23.8938462 71.1518907,23.6096154 Z M80.7227791,10.0519231 C78.8918721,10.0519231 77.751393,11.5069231 77.751393,13.7780769 C77.751393,16.0853846 78.7533372,18.7473077 81.5865628,18.7473077 C82.0703116,18.7473077 82.9689163,18.5342308 83.3830233,18.0373077 C84.0397535,17.3988462 84.4890558,16.1207692 84.4890558,14.7719231 C84.4890558,11.8261538 83.0722558,10.0515385 80.7227791,10.0515385 L80.7227791,10.0519231 Z M80.4809047,25.7392308 C79.7901023,25.7392308 79.3059791,25.9523077 78.9952116,26.13 C77.5439651,27.0876923 76.8876093,28.0107692 76.8876093,29.1115385 C76.8876093,30.1403846 77.2676442,30.9565385 78.0969814,31.6665385 C79.0989256,32.5538462 80.4809047,32.98 82.2429186,32.98 C85.7673209,32.98 87.3222814,31.0276923 87.3222814,29.1115385 C87.3222814,27.7623077 86.6655512,26.875 85.318393,26.3784615 C84.3508953,25.9523077 82.5888814,25.7392308 80.4809047,25.7392308 Z M80.7227791,34.9676923 C78.6151767,34.9676923 77.0946628,34.5061538 75.7819512,33.4769231 C74.5033116,32.4830769 73.9506698,30.9923077 73.9506698,29.9630769 C73.9506698,29.6792308 74.0199372,28.8980769 74.6418465,28.1884615 C75.021507,27.7623077 75.8512186,26.9461538 77.8206605,25.5619231 C77.8895535,25.5265385 77.924,25.4911538 77.924,25.4196154 C77.924,25.3488462 77.8547326,25.2776923 77.7858395,25.2426923 C76.161986,24.6038462 75.6782372,23.5742308 75.5397023,23.0065385 L75.5397023,22.9353846 C75.5056302,22.7223077 75.4363628,22.5096154 75.7475047,22.2965385 C75.9893791,22.1192308 76.3349674,21.9061538 76.7146279,21.6580769 C77.3020907,21.3026923 77.924,20.9123077 78.3040349,20.5926923 C78.3733023,20.5219231 78.3733023,20.4511538 78.3733023,20.38 C78.3733023,20.3088462 78.3040349,20.2376923 78.2347674,20.2026923 C75.8167721,19.3861538 74.6074,17.5403846 74.6074,14.7719231 C74.6074,12.9619231 75.4019163,11.3292308 76.8183419,10.3 C77.7858395,9.51923077 80.2045837,8.56076923 81.7939907,8.56076923 L81.8977047,8.56076923 C83.5215581,8.59615385 84.4197884,8.95115385 85.6980535,9.41269231 C86.3892302,9.66115385 87.0459605,9.76730769 87.9445651,9.76730769 C89.2917233,9.76730769 89.879186,9.34153846 90.3625605,8.845 C90.3973814,8.91576923 90.4666488,9.09346154 90.5010953,9.55461538 C90.5355419,10.0161538 90.3973814,10.6903846 90.051793,11.1873077 C89.7754721,11.5776923 89.1535628,11.8619231 88.5316535,11.8619231 L88.3586721,11.8619231 C87.7367628,11.7907692 87.4600674,11.7196154 87.4600674,11.7196154 L87.3222814,11.7907692 C87.2878349,11.8619231 87.3222814,11.9326923 87.3567279,12.0392308 L87.3915488,12.1103846 C87.4604419,12.4296154 87.5986023,13.3876923 87.5986023,13.6365385 C87.5986023,16.5469231 86.4584977,17.8242308 85.2491256,18.7826923 C84.0742,19.67 82.7270419,20.2376923 81.2065279,20.38 C81.1720814,20.38 81.0342953,20.38 80.7227791,20.4153846 C80.5501721,20.4153846 80.3082977,20.4511538 80.2734767,20.4511538 L80.2390302,20.4511538 C79.9627093,20.5219231 79.271907,20.8769231 79.271907,21.48 C79.271907,22.0123077 79.5826744,22.6515385 81.0683674,22.7580769 C81.3791349,22.7934615 81.6899023,22.7934615 82.0358651,22.8292308 C84.005307,22.9707692 86.4584977,23.1484615 87.5986023,23.5388462 C89.1880093,24.1419231 90.1899535,25.5973077 90.1899535,27.3365385 C90.1899535,29.9634615 88.3590465,32.4123077 85.318393,33.9380769 C83.8327,34.6126923 82.3466326,34.9676923 80.7227791,34.9676923 Z M100.417198,10.2292308 C99.6919488,10.2292308 99.0352186,10.4061538 98.5514698,10.7611538 C97.2043116,11.6130769 96.5131349,13.3169231 96.5131349,15.8011538 C96.5131349,20.4511538 98.7933442,23.7165385 102.041426,23.7165385 C103.008923,23.7165385 103.768993,23.4323077 104.425349,22.8646154 C105.427293,22.0123077 105.945863,20.3088462 105.945863,17.9307692 C105.945863,13.3169231 103.699726,10.2288462 100.417572,10.2288462 L100.417198,10.2292308 Z M101.039481,25.42 C95.1656023,25.42 93.058,20.9834615 93.058,16.8307692 C93.058,13.9203846 94.1981047,11.6842308 96.478314,10.0869231 C98.1025419,9.05769231 100.037537,8.49 101.765105,8.49 C106.25663,8.49 109.400998,11.7907692 109.400998,16.5469231 C109.400998,19.7765385 108.157179,22.3319231 105.772881,23.8938462 C104.632777,24.6746154 102.663335,25.42 101.039107,25.42 L101.039481,25.42 Z M39.4678395,10.2288462 C38.7422163,10.2288462 38.0858605,10.4061538 37.6017372,10.7611538 C36.2545791,11.6130769 35.5634023,13.3169231 35.5634023,15.8011538 C35.5634023,20.4511538 37.8436116,23.7165385 41.091693,23.7165385 C42.0591907,23.7165385 42.8192605,23.4323077 43.4759907,22.8646154 C44.4775605,22.0123077 44.9961302,20.3088462 44.9961302,17.9307692 C44.9961302,13.3169231 42.784814,10.2288462 39.4678395,10.2288462 Z M40.0897488,25.42 C34.2158698,25.42 32.1082674,20.9834615 32.1082674,16.8307692 C32.1082674,13.9203846 33.2483721,11.6842308 35.5285814,10.0869231 C37.1528093,9.05769231 39.0878047,8.49 40.8153721,8.49 C45.3072721,8.49 48.4512651,11.7907692 48.4512651,16.5469231 C48.4512651,19.7765385 47.2074465,22.3319231 44.8231488,23.8938462 C43.7174907,24.6746154 41.7480488,25.42 40.0897488,25.42 Z M0.596823256,25.065 C0.527555814,24.9588462 0.458288372,24.6392308 0.493109302,24.2488462 C0.493109302,23.9646154 0.562376744,23.7873077 0.596823256,23.7165385 C1.32244651,23.6096154 1.7024814,23.5030769 2.11696279,23.3969231 C2.80813953,23.2192308 3.08446047,22.8292308 3.11890698,21.9419231 C3.22299535,19.8123077 3.22299535,15.7657692 3.18817442,12.9619231 L3.18817442,12.8907692 C3.18817442,12.5715385 3.18817442,12.1807692 2.80813953,11.8969231 C2.25512326,11.5423077 1.59876744,11.2230769 0.734983721,10.9738462 C0.424216279,10.8680769 0.216788372,10.6903846 0.251234884,10.4776923 C0.251234884,10.2646154 0.458662791,10.0161538 0.907965116,9.945 C2.04806977,9.83846154 5.0190814,9.09346154 6.19400698,8.56076923 C6.26327442,8.63153846 6.36698837,8.845 6.36698837,9.12884615 L6.33254186,9.51884615 C6.29772093,9.90961538 6.26327442,10.3711538 6.26327442,10.8323077 C6.26327442,10.9742308 6.4018093,11.0807692 6.53959535,11.0807692 C6.60886279,11.0807692 6.67813023,11.0453846 6.74702326,11.0096154 C8.95833953,9.235 10.9622279,8.59615385 11.9986186,8.59615385 C13.692114,8.59615385 15.0052,9.41269231 16.0071442,11.1161538 C16.0760372,11.2230769 16.1453047,11.2584615 16.2490186,11.2584615 C16.3179116,11.2584615 16.4212512,11.2230769 16.4560721,11.1519231 C18.4947814,9.55461538 20.5334907,8.59615385 21.8806488,8.59615385 C25.0939093,8.59615385 26.9944581,11.0453846 26.9944581,15.1980769 C26.9944581,16.3692308 26.9944581,17.8953846 26.9600116,19.28 C26.9600116,20.5219231 26.9255651,21.6576923 26.9255651,22.4742308 C26.9255651,22.6511538 27.1670651,23.2192308 27.5471,23.3257692 C28.0308488,23.5742308 28.6875791,23.6807692 29.5513628,23.8226923 L29.5858093,23.8226923 C29.6550767,24.0711538 29.5169163,24.9938462 29.3787558,25.1715385 C29.1713279,25.1715385 28.860186,25.1715385 28.5149721,25.1361538 C27.6403212,25.089275 26.7646404,25.0655492 25.8888,25.065 C23.7467512,25.065 22.641093,25.1003846 21.569507,25.1715385 C21.5009884,24.8876923 21.4661674,24.0357692 21.569507,23.8226923 C22.1917907,23.7165385 22.5025581,23.6096154 22.8829674,23.5034615 C23.5741442,23.2903846 23.7467512,22.9707692 23.7815721,22.0480769 C23.7815721,21.3738462 23.9193581,15.6238462 23.7119302,14.2396154 C23.5048767,12.82 22.4681116,11.1519231 20.1875279,11.1519231 C19.3237442,11.1519231 17.976586,11.5069231 16.6635,12.5357692 C16.594607,12.6069231 16.5249651,12.7842308 16.5249651,12.8907692 L16.5249651,12.9265385 C16.6635,13.6715385 16.6635,14.5238462 16.6635,15.8369231 L16.6635,18.1438462 C16.6635,19.7411538 16.6286791,21.2319231 16.6635,22.3673077 C16.6635,23.1484615 17.1128023,23.3257692 17.4928372,23.4680769 C17.7002651,23.5030769 17.8380512,23.5388462 18.0110326,23.5742308 C18.3218,23.6453846 18.6329419,23.7165385 19.1166907,23.8226923 C19.1859581,23.965 19.1859581,24.4261538 19.0822442,24.8165385 C19.0474233,25.0296154 18.9781558,25.1357692 18.9437093,25.1715385 C17.7691581,25.1361538 16.559786,25.1003846 14.7977721,25.1003846 C14.2795767,25.1003846 13.3809721,25.1361538 12.6209023,25.1361538 C11.9986186,25.1361538 11.4115302,25.1715385 11.0663163,25.1715385 C11.0314953,25.1003846 10.9622279,24.8523077 10.9622279,24.4615385 C10.9622279,24.1423077 11.0314953,23.8938462 11.1007628,23.8226923 C11.2733698,23.7873077 11.4115302,23.7519231 11.5845116,23.7519231 C11.9986186,23.6807692 12.3445814,23.6096154 12.6897953,23.5388462 C13.2776326,23.3615385 13.484686,23.0419231 13.5191326,22.2611538 C13.6228465,20.4865385 13.7265605,15.4111538 13.484686,14.1330769 C13.0702047,12.0746154 11.9301,11.0453846 10.0984442,11.0453846 C9.02760698,11.0453846 7.6797,11.5776923 6.57441628,12.43 C6.40143488,12.5715385 6.26327442,12.9261538 6.26327442,13.2457692 L6.26327442,15.34 C6.26327442,17.8953846 6.26327442,21.09 6.29772093,22.4742308 C6.33254186,22.8996154 6.47032791,23.3969231 7.2652186,23.5742308 C7.4382,23.6096154 7.71452093,23.6807692 8.0601093,23.7165385 L8.68164419,23.8226923 C8.75128605,24.0357692 8.71646512,24.8876923 8.57830465,25.1715385 C8.23271628,25.1715385 7.81823488,25.1361538 7.33411163,25.1361538 C6.60886279,25.1003846 5.67581163,25.065 4.63942093,25.065 C3.43004884,25.065 2.56626512,25.1003846 1.87508837,25.1361538 C1.39133953,25.065 1.01130465,25.065 0.596823256,25.065 Z" id="Shape" fill="#442D22"></path>
            </g>
            <g id="Group" transform="translate(45.000000, 0.000000)">
                <path d="M39.641089,160.981503 L35.3629319,159.517215 C35.3629319,159.517215 35.8854031,137.676328 28.0573822,136.108985 C22.8405864,130.046853 28.8942408,-120.97725 47.6783246,135.272087 C47.6783246,135.272087 41.2073717,138.510961 40.0595183,144.051022 C38.8064921,149.485763 39.641089,160.981503 39.641089,160.981503 Z" id="Shape" fill="#FFFFFF"></path>
                <path d="M39.641089,160.981503 L35.3629319,159.517215 C35.3629319,159.517215 35.8854031,137.676328 28.0573822,136.108985 C22.8405864,130.046853 28.8942408,-120.97725 47.6783246,135.272087 C47.6783246,135.272087 41.2073717,138.510961 40.0595183,144.051022 C38.8064921,149.485763 39.641089,160.981503 39.641089,160.981503 Z" id="Shape" fill="#A6A385"></path>
                <path d="M41.9379267,139.871062 C41.9379267,139.871062 79.4043141,115.206919 70.6365236,63.8934069 C62.1842513,26.5863282 42.2511832,14.3590106 40.0595183,9.6558476 C37.6597696,6.31165299 35.3629319,0.46016178 35.3629319,0.46016178 L36.9292147,104.23325 C36.9292147,104.33857 33.6937382,136.003665 41.9390576,139.872195" id="Shape" fill="#FFFFFF"></path>
                <path d="M41.9379267,139.871062 C41.9379267,139.871062 79.4043141,115.206919 70.6365236,63.8934069 C62.1842513,26.5863282 42.2511832,14.3590106 40.0595183,9.6558476 C37.6597696,6.31165299 35.3629319,0.46016178 35.3629319,0.46016178 L36.9292147,104.23325 C36.9292147,104.33857 33.6937382,136.003665 41.9390576,139.872195" id="Shape" fill="#499D4A"></path>
                <path d="M33.1723979,141.228898 C33.1723979,141.228898 -1.99828272,117.192145 0.0893403141,74.8682087 C2.07179058,32.5431395 26.9095288,11.7463939 31.7101571,7.98431652 C34.8415916,4.64012192 34.9456335,3.38534115 35.1548482,0.0411465415 C37.3465131,4.7443095 36.9292147,70.3745535 37.2413403,78.1070834 C38.1799791,107.89114 35.5721466,135.586914 33.1723979,141.228898 Z" id="Shape" fill="#FFFFFF"></path>
                <path d="M33.1723979,141.228898 C33.1723979,141.228898 -1.99828272,117.192145 0.0893403141,74.8682087 C2.07179058,32.5431395 26.9095288,11.7463939 31.7101571,7.98431652 C34.8415916,4.64012192 34.9456335,3.38534115 35.1548482,0.0411465415 C37.3465131,4.7443095 36.9292147,70.3745535 37.2413403,78.1070834 C38.1799791,107.89114 35.5721466,135.586914 33.1723979,141.228898 Z" id="Shape" fill="#58AA50"></path>
            </g>
        </g>
    </g>
</svg>